<?xml version="1.0" encoding="utf-8"?>
<!-- Generator: Adobe Illustrator 25.2.3, SVG Export Plug-In . SVG Version: 6.00 Build 0)  -->
<svg version="1.1" id="Layer_1" xmlns="http://www.w3.org/2000/svg" xmlns:xlink="http://www.w3.org/1999/xlink" x="0px" y="0px"
	 viewBox="0 0 500 500" style="enable-background:new 0 0 500 500;" xml:space="preserve">
<style type="text/css">
	.st0{fill:#903749;stroke:#903749;stroke-width:10;stroke-miterlimit:10;}
	.st1{fill:none;stroke:#903749;stroke-width:20;stroke-miterlimit:10;}
</style>
<path class="st0" d="M346.6,251.4l-90-139.5c-3.9-6.1-12.8-6.1-16.7,0l-90.2,139.9c-4.2,6.6,0.4,15.2,8.2,15.3l38.2,0.3
	c5.4,0,9.8,4.5,9.8,9.9V388c0,5.5,4.4,9.9,9.9,9.9h66c5.5,0,9.9-4.4,9.9-9.9V276.3c0-5.5,4.5-10,10-9.9l36.2,0.3
	C346.1,266.8,350.9,258,346.6,251.4z"/>
<path class="st1" d="M438.2,473.3H61.8c-19.4,0-35.1-15.7-35.1-35.1V61.8c0-19.4,15.7-35.1,35.1-35.1h376.4
	c19.4,0,35.1,15.7,35.1,35.1v376.4C473.3,457.6,457.6,473.3,438.2,473.3z"/>
</svg>
